<svg width="40" height="40" viewBox="0 0 40 40" fill="none" xmlns="http://www.w3.org/2000/svg">
<path d="M18.7588 0H20.278V4.18699H18.7588V0Z" fill="white"/>
<path d="M28.4276 3.37286L25.4656 6.33453L26.5419 7.4077L29.5036 4.44854L28.4276 3.37286Z" fill="white"/>
<path d="M10.6099 3.37286L9.53296 4.44854L12.4946 7.4077L13.5713 6.33453L10.6099 3.37286Z" fill="white"/>
<path d="M6.15796 12.6008H10.3453V14.1172H6.15796V12.6008Z" fill="white"/>
<path d="M28.6907 12.6008H32.8748V14.1172H28.6907V12.6008Z" fill="white"/>
<path fill-rule="evenodd" clip-rule="evenodd" d="M7.7027 19.7892C4.99985 19.7554 2.41789 21.1799 1.01956 23.6179C-0.702881 26.6223 -0.205769 30.4135 2.22977 32.8645C4.16182 34.8098 4.16182 36.9047 4.16182 39.9999H11.9219V36.8886L15.2207 35.1788V31.725L16.703 30.3394L15.2207 27.4487C15.2207 23.9814 12.9058 20.9461 9.5798 20.0506C8.95419 19.884 8.3257 19.7975 7.7027 19.789V19.7892Z" fill="white"/>
<path fill-rule="evenodd" clip-rule="evenodd" d="M31.941 19.7892C34.6461 19.7554 37.2258 21.1799 38.6241 23.6179C40.3472 26.6223 39.8523 30.4135 37.4165 32.8645C35.4838 34.8098 35.4838 36.9047 35.4838 39.9999H27.7252V36.8886L24.4255 35.1788V31.725L22.9407 30.3394L24.4255 27.4487C24.4255 23.9814 26.7379 20.9461 30.0664 20.0506C30.6898 19.884 31.3182 19.7975 31.941 19.789V19.7892Z" fill="white"/>
<path fill-rule="evenodd" clip-rule="evenodd" d="M19.5185 7.54486C22.0014 7.54486 24.2345 9.04509 25.1853 11.3576C26.136 13.6668 25.6117 16.328 23.857 18.0978L22.3965 19.5669H20.0891V15.5522C20.3325 15.4972 20.5708 15.4082 20.7937 15.2826C21.5875 14.8347 22.0824 13.9988 22.0824 13.0929H20.9436C20.9436 13.5825 20.6787 14.0411 20.2362 14.2927C19.7911 14.5415 19.2432 14.5415 18.8006 14.2927C18.3587 14.0415 18.0942 13.5828 18.0942 13.0929H16.9519C16.9519 13.9988 17.4503 14.8347 18.2406 15.2826C18.466 15.4082 18.7046 15.4969 18.948 15.5522V19.5665H16.6412L15.1795 18.0975C13.4223 16.3271 12.8989 13.6665 13.8512 11.3572C14.8013 9.04517 17.0351 7.54486 19.5183 7.54486H19.5185Z" fill="white"/>
<path fill-rule="evenodd" clip-rule="evenodd" d="M16.9499 20.7054H22.0849V22.3686L20.8406 23.4421L20.7939 23.6021C20.637 24.1387 20.1127 24.4875 19.5633 24.5213C19.0106 24.5528 18.4944 24.3353 18.2328 23.5759L18.1851 23.4291L16.9497 22.3689V20.7055L16.9499 20.7054Z" fill="white"/>
</svg>
